<?xml version="1.0" encoding="UTF-8"?>
<svg width="24px" height="24px" viewBox="0 0 24 24" version="1.1" xmlns="http://www.w3.org/2000/svg" xmlns:xlink="http://www.w3.org/1999/xlink">
    <title>Linear Logo</title>
    <g id="Linear-Logo" stroke="none" stroke-width="1" fill="none" fill-rule="evenodd">
        <path d="M17.5,12 C17.5,15.0375 15.0375,17.5 12,17.5 C8.9625,17.5 6.5,15.0375 6.5,12 C6.5,8.9625 8.9625,6.5 12,6.5 C15.0375,6.5 17.5,8.9625 17.5,12" id="Fill-1" fill="#5E6AD2"></path>
        <path d="M12,1 C5.925,1 1,5.925 1,12 C1,18.075 5.925,23 12,23 C18.075,23 23,18.075 23,12 C23,5.925 18.075,1 12,1 M12,3 C16.9625,3 21,7.0375 21,12 C21,16.9625 16.9625,21 12,21 C7.0375,21 3,16.9625 3,12 C3,7.0375 7.0375,3 12,3" id="Fill-3" fill="#5E6AD2"></path>
    </g>
</svg>
